<mxfile host="65bd71144e" scale="4" border="0">
    <diagram id="C5RBs43oDa-KdzZeNtuy" name="Page-1">
        <mxGraphModel dx="3170" dy="3981" grid="1" gridSize="10" guides="1" tooltips="1" connect="1" arrows="1" fold="1" page="1" pageScale="1" pageWidth="827" pageHeight="1169" background="#ffffff" math="0" shadow="0">
            <root>
                <mxCell id="WIyWlLk6GJQsqaUBKTNV-0"/>
                <mxCell id="WIyWlLk6GJQsqaUBKTNV-1" parent="WIyWlLk6GJQsqaUBKTNV-0"/>
                <mxCell id="zkfFHV4jXpPFQw0GAbJ--0" value="EntryController" style="swimlane;fontStyle=0;align=center;verticalAlign=top;childLayout=stackLayout;horizontal=1;startSize=26;horizontalStack=0;resizeParent=1;resizeLast=0;collapsible=1;marginBottom=0;rounded=0;shadow=0;strokeWidth=1;" parent="WIyWlLk6GJQsqaUBKTNV-1" vertex="1">
                    <mxGeometry x="575" y="-840" width="170" height="193" as="geometry">
                        <mxRectangle x="230" y="140" width="160" height="26" as="alternateBounds"/>
                    </mxGeometry>
                </mxCell>
                <mxCell id="zkfFHV4jXpPFQw0GAbJ--1" value="- entryService: EntryService" style="text;align=left;verticalAlign=top;spacingLeft=4;spacingRight=4;overflow=hidden;rotatable=0;points=[[0,0.5],[1,0.5]];portConstraint=eastwest;" parent="zkfFHV4jXpPFQw0GAbJ--0" vertex="1">
                    <mxGeometry y="26" width="170" height="26" as="geometry"/>
                </mxCell>
                <mxCell id="zkfFHV4jXpPFQw0GAbJ--4" value="" style="line;html=1;strokeWidth=1;align=left;verticalAlign=middle;spacingTop=-1;spacingLeft=3;spacingRight=3;rotatable=0;labelPosition=right;points=[];portConstraint=eastwest;" parent="zkfFHV4jXpPFQw0GAbJ--0" vertex="1">
                    <mxGeometry y="52" width="170" height="8" as="geometry"/>
                </mxCell>
                <mxCell id="zkfFHV4jXpPFQw0GAbJ--5" value="+ list(): List&lt;Entry&gt;" style="text;align=left;verticalAlign=top;spacingLeft=4;spacingRight=4;overflow=hidden;rotatable=0;points=[[0,0.5],[1,0.5]];portConstraint=eastwest;" parent="zkfFHV4jXpPFQw0GAbJ--0" vertex="1">
                    <mxGeometry y="60" width="170" height="26" as="geometry"/>
                </mxCell>
                <mxCell id="VcAm5iufPTOMemJvdvyK-0" value="+ add(Entry entry): Entry" style="text;align=left;verticalAlign=top;spacingLeft=4;spacingRight=4;overflow=hidden;rotatable=0;points=[[0,0.5],[1,0.5]];portConstraint=eastwest;" parent="zkfFHV4jXpPFQw0GAbJ--0" vertex="1">
                    <mxGeometry y="86" width="170" height="26" as="geometry"/>
                </mxCell>
                <mxCell id="112" value="+ get(Long id): Entry" style="text;align=left;verticalAlign=top;spacingLeft=4;spacingRight=4;overflow=hidden;rotatable=0;points=[[0,0.5],[1,0.5]];portConstraint=eastwest;" parent="zkfFHV4jXpPFQw0GAbJ--0" vertex="1">
                    <mxGeometry y="112" width="170" height="26" as="geometry"/>
                </mxCell>
                <mxCell id="111" value="+ delete(Long id): Entry" style="text;align=left;verticalAlign=top;spacingLeft=4;spacingRight=4;overflow=hidden;rotatable=0;points=[[0,0.5],[1,0.5]];portConstraint=eastwest;" parent="zkfFHV4jXpPFQw0GAbJ--0" vertex="1">
                    <mxGeometry y="138" width="170" height="26" as="geometry"/>
                </mxCell>
                <mxCell id="110" value="+ update(Entry entry): Entry" style="text;align=left;verticalAlign=top;spacingLeft=4;spacingRight=4;overflow=hidden;rotatable=0;points=[[0,0.5],[1,0.5]];portConstraint=eastwest;" parent="zkfFHV4jXpPFQw0GAbJ--0" vertex="1">
                    <mxGeometry y="164" width="170" height="26" as="geometry"/>
                </mxCell>
                <mxCell id="zkfFHV4jXpPFQw0GAbJ--6" value="AuthenticationService" style="swimlane;fontStyle=0;align=center;verticalAlign=top;childLayout=stackLayout;horizontal=1;startSize=26;horizontalStack=0;resizeParent=1;resizeLast=0;collapsible=1;marginBottom=0;rounded=0;shadow=0;strokeWidth=1;" parent="WIyWlLk6GJQsqaUBKTNV-1" vertex="1">
                    <mxGeometry x="-150" y="271.5" width="280" height="112" as="geometry">
                        <mxRectangle x="130" y="380" width="160" height="26" as="alternateBounds"/>
                    </mxGeometry>
                </mxCell>
                <mxCell id="90" value="- entityManager: EntityManager&#10;" style="text;align=left;verticalAlign=top;spacingLeft=4;spacingRight=4;overflow=hidden;rotatable=0;points=[[0,0.5],[1,0.5]];portConstraint=eastwest;fontStyle=0" parent="zkfFHV4jXpPFQw0GAbJ--6" vertex="1">
                    <mxGeometry y="26" width="280" height="26" as="geometry"/>
                </mxCell>
                <mxCell id="zkfFHV4jXpPFQw0GAbJ--9" value="" style="line;html=1;strokeWidth=1;align=left;verticalAlign=middle;spacingTop=-1;spacingLeft=3;spacingRight=3;rotatable=0;labelPosition=right;points=[];portConstraint=eastwest;" parent="zkfFHV4jXpPFQw0GAbJ--6" vertex="1">
                    <mxGeometry y="52" width="280" height="8" as="geometry"/>
                </mxCell>
                <mxCell id="zkfFHV4jXpPFQw0GAbJ--10" value="+ GenerateValidJwtToken(String username): string" style="text;align=left;verticalAlign=top;spacingLeft=4;spacingRight=4;overflow=hidden;rotatable=0;points=[[0,0.5],[1,0.5]];portConstraint=eastwest;fontStyle=0" parent="zkfFHV4jXpPFQw0GAbJ--6" vertex="1">
                    <mxGeometry y="60" width="280" height="26" as="geometry"/>
                </mxCell>
                <mxCell id="89" value="+ checkIfUserExists(User user): boolean" style="text;align=left;verticalAlign=top;spacingLeft=4;spacingRight=4;overflow=hidden;rotatable=0;points=[[0,0.5],[1,0.5]];portConstraint=eastwest;fontStyle=0" parent="zkfFHV4jXpPFQw0GAbJ--6" vertex="1">
                    <mxGeometry y="86" width="280" height="26" as="geometry"/>
                </mxCell>
                <mxCell id="zkfFHV4jXpPFQw0GAbJ--13" value="EntryService" style="swimlane;fontStyle=0;align=center;verticalAlign=top;childLayout=stackLayout;horizontal=1;startSize=26;horizontalStack=0;resizeParent=1;resizeLast=0;collapsible=1;marginBottom=0;rounded=0;shadow=0;strokeWidth=1;swimlaneFillColor=#ffffff;" parent="WIyWlLk6GJQsqaUBKTNV-1" vertex="1">
                    <mxGeometry x="825" y="-840" width="190" height="190" as="geometry">
                        <mxRectangle x="340" y="380" width="170" height="26" as="alternateBounds"/>
                    </mxGeometry>
                </mxCell>
                <mxCell id="zkfFHV4jXpPFQw0GAbJ--14" value="- entityManager: EntityManager" style="text;align=left;verticalAlign=top;spacingLeft=4;spacingRight=4;overflow=hidden;rotatable=0;points=[[0,0.5],[1,0.5]];portConstraint=eastwest;" parent="zkfFHV4jXpPFQw0GAbJ--13" vertex="1">
                    <mxGeometry y="26" width="190" height="26" as="geometry"/>
                </mxCell>
                <mxCell id="zkfFHV4jXpPFQw0GAbJ--15" value="" style="line;html=1;strokeWidth=1;align=left;verticalAlign=middle;spacingTop=-1;spacingLeft=3;spacingRight=3;rotatable=0;labelPosition=right;points=[];portConstraint=eastwest;" parent="zkfFHV4jXpPFQw0GAbJ--13" vertex="1">
                    <mxGeometry y="52" width="190" height="8" as="geometry"/>
                </mxCell>
                <mxCell id="VcAm5iufPTOMemJvdvyK-3" value="+ create(Entry entry): Entry" style="text;align=left;verticalAlign=top;spacingLeft=4;spacingRight=4;overflow=hidden;rotatable=0;points=[[0,0.5],[1,0.5]];portConstraint=eastwest;" parent="zkfFHV4jXpPFQw0GAbJ--13" vertex="1">
                    <mxGeometry y="60" width="190" height="26" as="geometry"/>
                </mxCell>
                <mxCell id="VcAm5iufPTOMemJvdvyK-4" value="+ list(): List&lt;Entry&gt;" style="text;align=left;verticalAlign=top;spacingLeft=4;spacingRight=4;overflow=hidden;rotatable=0;points=[[0,0.5],[1,0.5]];portConstraint=eastwest;" parent="zkfFHV4jXpPFQw0GAbJ--13" vertex="1">
                    <mxGeometry y="86" width="190" height="26" as="geometry"/>
                </mxCell>
                <mxCell id="91" value="+ get(Long id): Entry" style="text;align=left;verticalAlign=top;spacingLeft=4;spacingRight=4;overflow=hidden;rotatable=0;points=[[0,0.5],[1,0.5]];portConstraint=eastwest;" parent="zkfFHV4jXpPFQw0GAbJ--13" vertex="1">
                    <mxGeometry y="112" width="190" height="26" as="geometry"/>
                </mxCell>
                <mxCell id="92" value="+ delete(Long id): Entry" style="text;align=left;verticalAlign=top;spacingLeft=4;spacingRight=4;overflow=hidden;rotatable=0;points=[[0,0.5],[1,0.5]];portConstraint=eastwest;" parent="zkfFHV4jXpPFQw0GAbJ--13" vertex="1">
                    <mxGeometry y="138" width="190" height="26" as="geometry"/>
                </mxCell>
                <mxCell id="93" value="+ update(Entry entry): Entry" style="text;align=left;verticalAlign=top;spacingLeft=4;spacingRight=4;overflow=hidden;rotatable=0;points=[[0,0.5],[1,0.5]];portConstraint=eastwest;" parent="zkfFHV4jXpPFQw0GAbJ--13" vertex="1">
                    <mxGeometry y="164" width="190" height="26" as="geometry"/>
                </mxCell>
                <mxCell id="0" value="Category" style="swimlane;fontStyle=0;align=center;verticalAlign=top;childLayout=stackLayout;horizontal=1;startSize=26;horizontalStack=0;resizeParent=1;resizeLast=0;collapsible=1;marginBottom=0;rounded=0;shadow=0;strokeWidth=1;" parent="WIyWlLk6GJQsqaUBKTNV-1" vertex="1">
                    <mxGeometry x="1079.5" y="-313" width="220" height="268" as="geometry">
                        <mxRectangle x="550" y="140" width="160" height="26" as="alternateBounds"/>
                    </mxGeometry>
                </mxCell>
                <mxCell id="1" value="- id: Long" style="text;align=left;verticalAlign=top;spacingLeft=4;spacingRight=4;overflow=hidden;rotatable=0;points=[[0,0.5],[1,0.5]];portConstraint=eastwest;" parent="0" vertex="1">
                    <mxGeometry y="26" width="220" height="26" as="geometry"/>
                </mxCell>
                <mxCell id="2" value="- title: String" style="text;align=left;verticalAlign=top;spacingLeft=4;spacingRight=4;overflow=hidden;rotatable=0;points=[[0,0.5],[1,0.5]];portConstraint=eastwest;rounded=0;shadow=0;html=0;" parent="0" vertex="1">
                    <mxGeometry y="52" width="220" height="26" as="geometry"/>
                </mxCell>
                <mxCell id="3" value="- entries: List&lt;Entry&gt;" style="text;align=left;verticalAlign=top;spacingLeft=4;spacingRight=4;overflow=hidden;rotatable=0;points=[[0,0.5],[1,0.5]];portConstraint=eastwest;rounded=0;shadow=0;html=0;" parent="0" vertex="1">
                    <mxGeometry y="78" width="220" height="26" as="geometry"/>
                </mxCell>
                <mxCell id="4" value="" style="line;html=1;strokeWidth=1;align=left;verticalAlign=middle;spacingTop=-1;spacingLeft=3;spacingRight=3;rotatable=0;labelPosition=right;points=[];portConstraint=eastwest;" parent="0" vertex="1">
                    <mxGeometry y="104" width="220" height="8" as="geometry"/>
                </mxCell>
                <mxCell id="5" value="+ getId(): Long" style="text;align=left;verticalAlign=top;spacingLeft=4;spacingRight=4;overflow=hidden;rotatable=0;points=[[0,0.5],[1,0.5]];portConstraint=eastwest;" parent="0" vertex="1">
                    <mxGeometry y="112" width="220" height="26" as="geometry"/>
                </mxCell>
                <mxCell id="6" value="+ setId(Long id): void" style="text;align=left;verticalAlign=top;spacingLeft=4;spacingRight=4;overflow=hidden;rotatable=0;points=[[0,0.5],[1,0.5]];portConstraint=eastwest;" parent="0" vertex="1">
                    <mxGeometry y="138" width="220" height="26" as="geometry"/>
                </mxCell>
                <mxCell id="7" value="+ getTitle(): String" style="text;align=left;verticalAlign=top;spacingLeft=4;spacingRight=4;overflow=hidden;rotatable=0;points=[[0,0.5],[1,0.5]];portConstraint=eastwest;" parent="0" vertex="1">
                    <mxGeometry y="164" width="220" height="26" as="geometry"/>
                </mxCell>
                <mxCell id="8" value="+ setTitle(String title): void" style="text;align=left;verticalAlign=top;spacingLeft=4;spacingRight=4;overflow=hidden;rotatable=0;points=[[0,0.5],[1,0.5]];portConstraint=eastwest;" parent="0" vertex="1">
                    <mxGeometry y="190" width="220" height="26" as="geometry"/>
                </mxCell>
                <mxCell id="9" value="+ getEntries(): List&lt;Entry&gt;" style="text;align=left;verticalAlign=top;spacingLeft=4;spacingRight=4;overflow=hidden;rotatable=0;points=[[0,0.5],[1,0.5]];portConstraint=eastwest;" parent="0" vertex="1">
                    <mxGeometry y="216" width="220" height="26" as="geometry"/>
                </mxCell>
                <mxCell id="10" value="+ setEntries(List&lt;Entry&gt; entries): void" style="text;align=left;verticalAlign=top;spacingLeft=4;spacingRight=4;overflow=hidden;rotatable=0;points=[[0,0.5],[1,0.5]];portConstraint=eastwest;" parent="0" vertex="1">
                    <mxGeometry y="242" width="220" height="26" as="geometry"/>
                </mxCell>
                <mxCell id="11" value="Entry" style="swimlane;fontStyle=0;align=center;verticalAlign=top;childLayout=stackLayout;horizontal=1;startSize=26;horizontalStack=0;resizeParent=1;resizeLast=0;collapsible=1;marginBottom=0;rounded=0;shadow=0;strokeWidth=1;" parent="WIyWlLk6GJQsqaUBKTNV-1" vertex="1">
                    <mxGeometry x="646.5" y="-430" width="300" height="502" as="geometry">
                        <mxRectangle x="550" y="140" width="160" height="26" as="alternateBounds"/>
                    </mxGeometry>
                </mxCell>
                <mxCell id="12" value="- id: Long" style="text;align=left;verticalAlign=top;spacingLeft=4;spacingRight=4;overflow=hidden;rotatable=0;points=[[0,0.5],[1,0.5]];portConstraint=eastwest;" parent="11" vertex="1">
                    <mxGeometry y="26" width="300" height="26" as="geometry"/>
                </mxCell>
                <mxCell id="13" value="- checkIn: LocalDateTime" style="text;align=left;verticalAlign=top;spacingLeft=4;spacingRight=4;overflow=hidden;rotatable=0;points=[[0,0.5],[1,0.5]];portConstraint=eastwest;rounded=0;shadow=0;html=0;" parent="11" vertex="1">
                    <mxGeometry y="52" width="300" height="26" as="geometry"/>
                </mxCell>
                <mxCell id="14" value="- checkOut: LocalDateTime" style="text;align=left;verticalAlign=top;spacingLeft=4;spacingRight=4;overflow=hidden;rotatable=0;points=[[0,0.5],[1,0.5]];portConstraint=eastwest;rounded=0;shadow=0;html=0;" parent="11" vertex="1">
                    <mxGeometry y="78" width="300" height="26" as="geometry"/>
                </mxCell>
                <mxCell id="15" value="- category: Category" style="text;align=left;verticalAlign=top;spacingLeft=4;spacingRight=4;overflow=hidden;rotatable=0;points=[[0,0.5],[1,0.5]];portConstraint=eastwest;rounded=0;shadow=0;html=0;" parent="11" vertex="1">
                    <mxGeometry y="104" width="300" height="26" as="geometry"/>
                </mxCell>
                <mxCell id="16" value="- participants: List&lt;Participant&gt;" style="text;align=left;verticalAlign=top;spacingLeft=4;spacingRight=4;overflow=hidden;rotatable=0;points=[[0,0.5],[1,0.5]];portConstraint=eastwest;rounded=0;shadow=0;html=0;" parent="11" vertex="1">
                    <mxGeometry y="130" width="300" height="26" as="geometry"/>
                </mxCell>
                <mxCell id="17" value="- location: Location" style="text;align=left;verticalAlign=top;spacingLeft=4;spacingRight=4;overflow=hidden;rotatable=0;points=[[0,0.5],[1,0.5]];portConstraint=eastwest;rounded=0;shadow=0;html=0;" parent="11" vertex="1">
                    <mxGeometry y="156" width="300" height="26" as="geometry"/>
                </mxCell>
                <mxCell id="18" value="" style="line;html=1;strokeWidth=1;align=left;verticalAlign=middle;spacingTop=-1;spacingLeft=3;spacingRight=3;rotatable=0;labelPosition=right;points=[];portConstraint=eastwest;" parent="11" vertex="1">
                    <mxGeometry y="182" width="300" height="8" as="geometry"/>
                </mxCell>
                <mxCell id="19" value="+ getId(): Long" style="text;align=left;verticalAlign=top;spacingLeft=4;spacingRight=4;overflow=hidden;rotatable=0;points=[[0,0.5],[1,0.5]];portConstraint=eastwest;" parent="11" vertex="1">
                    <mxGeometry y="190" width="300" height="26" as="geometry"/>
                </mxCell>
                <mxCell id="20" value="+ setId(Long id): void" style="text;align=left;verticalAlign=top;spacingLeft=4;spacingRight=4;overflow=hidden;rotatable=0;points=[[0,0.5],[1,0.5]];portConstraint=eastwest;" parent="11" vertex="1">
                    <mxGeometry y="216" width="300" height="26" as="geometry"/>
                </mxCell>
                <mxCell id="21" value="+ getCheckIn(): LocalDateTime" style="text;align=left;verticalAlign=top;spacingLeft=4;spacingRight=4;overflow=hidden;rotatable=0;points=[[0,0.5],[1,0.5]];portConstraint=eastwest;" parent="11" vertex="1">
                    <mxGeometry y="242" width="300" height="26" as="geometry"/>
                </mxCell>
                <mxCell id="22" value="+ setCheckIn(LocalDateTime checkIn): void" style="text;align=left;verticalAlign=top;spacingLeft=4;spacingRight=4;overflow=hidden;rotatable=0;points=[[0,0.5],[1,0.5]];portConstraint=eastwest;" parent="11" vertex="1">
                    <mxGeometry y="268" width="300" height="26" as="geometry"/>
                </mxCell>
                <mxCell id="23" value="+ getCheckOut(): LocalDateTime" style="text;align=left;verticalAlign=top;spacingLeft=4;spacingRight=4;overflow=hidden;rotatable=0;points=[[0,0.5],[1,0.5]];portConstraint=eastwest;" parent="11" vertex="1">
                    <mxGeometry y="294" width="300" height="26" as="geometry"/>
                </mxCell>
                <mxCell id="24" value="+ setCheckOut(LocalDateTime checkOut): void" style="text;align=left;verticalAlign=top;spacingLeft=4;spacingRight=4;overflow=hidden;rotatable=0;points=[[0,0.5],[1,0.5]];portConstraint=eastwest;" parent="11" vertex="1">
                    <mxGeometry y="320" width="300" height="26" as="geometry"/>
                </mxCell>
                <mxCell id="25" value="+ getCategory(): Category" style="text;align=left;verticalAlign=top;spacingLeft=4;spacingRight=4;overflow=hidden;rotatable=0;points=[[0,0.5],[1,0.5]];portConstraint=eastwest;" parent="11" vertex="1">
                    <mxGeometry y="346" width="300" height="26" as="geometry"/>
                </mxCell>
                <mxCell id="26" value="+ setCategory(Category category): void" style="text;align=left;verticalAlign=top;spacingLeft=4;spacingRight=4;overflow=hidden;rotatable=0;points=[[0,0.5],[1,0.5]];portConstraint=eastwest;" parent="11" vertex="1">
                    <mxGeometry y="372" width="300" height="26" as="geometry"/>
                </mxCell>
                <mxCell id="27" value="+ getParticipants(): List&lt;Participant&gt;" style="text;align=left;verticalAlign=top;spacingLeft=4;spacingRight=4;overflow=hidden;rotatable=0;points=[[0,0.5],[1,0.5]];portConstraint=eastwest;" parent="11" vertex="1">
                    <mxGeometry y="398" width="300" height="26" as="geometry"/>
                </mxCell>
                <mxCell id="28" value="+ setParticipants(List&lt;Participants&gt; participants): void" style="text;align=left;verticalAlign=top;spacingLeft=4;spacingRight=4;overflow=hidden;rotatable=0;points=[[0,0.5],[1,0.5]];portConstraint=eastwest;" parent="11" vertex="1">
                    <mxGeometry y="424" width="300" height="26" as="geometry"/>
                </mxCell>
                <mxCell id="29" value="+ getLocation(): Location" style="text;align=left;verticalAlign=top;spacingLeft=4;spacingRight=4;overflow=hidden;rotatable=0;points=[[0,0.5],[1,0.5]];portConstraint=eastwest;" parent="11" vertex="1">
                    <mxGeometry y="450" width="300" height="26" as="geometry"/>
                </mxCell>
                <mxCell id="30" value="+ setLocation(Location location): void" style="text;align=left;verticalAlign=top;spacingLeft=4;spacingRight=4;overflow=hidden;rotatable=0;points=[[0,0.5],[1,0.5]];portConstraint=eastwest;" parent="11" vertex="1">
                    <mxGeometry y="476" width="300" height="26" as="geometry"/>
                </mxCell>
                <mxCell id="31" value="Location" style="swimlane;fontStyle=0;align=center;verticalAlign=top;childLayout=stackLayout;horizontal=1;startSize=26;horizontalStack=0;resizeParent=1;resizeLast=0;collapsible=1;marginBottom=0;rounded=0;shadow=0;strokeWidth=1;" parent="WIyWlLk6GJQsqaUBKTNV-1" vertex="1">
                    <mxGeometry x="290.5" y="-391" width="220" height="424" as="geometry">
                        <mxRectangle x="550" y="140" width="160" height="26" as="alternateBounds"/>
                    </mxGeometry>
                </mxCell>
                <mxCell id="32" value="- id: Long" style="text;align=left;verticalAlign=top;spacingLeft=4;spacingRight=4;overflow=hidden;rotatable=0;points=[[0,0.5],[1,0.5]];portConstraint=eastwest;" parent="31" vertex="1">
                    <mxGeometry y="26" width="220" height="26" as="geometry"/>
                </mxCell>
                <mxCell id="33" value="- address: String" style="text;align=left;verticalAlign=top;spacingLeft=4;spacingRight=4;overflow=hidden;rotatable=0;points=[[0,0.5],[1,0.5]];portConstraint=eastwest;rounded=0;shadow=0;html=0;" parent="31" vertex="1">
                    <mxGeometry y="52" width="220" height="26" as="geometry"/>
                </mxCell>
                <mxCell id="34" value="- zip: Int" style="text;align=left;verticalAlign=top;spacingLeft=4;spacingRight=4;overflow=hidden;rotatable=0;points=[[0,0.5],[1,0.5]];portConstraint=eastwest;rounded=0;shadow=0;html=0;" parent="31" vertex="1">
                    <mxGeometry y="78" width="220" height="26" as="geometry"/>
                </mxCell>
                <mxCell id="35" value="- city: String" style="text;align=left;verticalAlign=top;spacingLeft=4;spacingRight=4;overflow=hidden;rotatable=0;points=[[0,0.5],[1,0.5]];portConstraint=eastwest;rounded=0;shadow=0;html=0;" parent="31" vertex="1">
                    <mxGeometry y="104" width="220" height="26" as="geometry"/>
                </mxCell>
                <mxCell id="36" value="- entries: List&lt;Entry&gt;" style="text;align=left;verticalAlign=top;spacingLeft=4;spacingRight=4;overflow=hidden;rotatable=0;points=[[0,0.5],[1,0.5]];portConstraint=eastwest;rounded=0;shadow=0;html=0;" parent="31" vertex="1">
                    <mxGeometry y="130" width="220" height="26" as="geometry"/>
                </mxCell>
                <mxCell id="37" value="" style="line;html=1;strokeWidth=1;align=left;verticalAlign=middle;spacingTop=-1;spacingLeft=3;spacingRight=3;rotatable=0;labelPosition=right;points=[];portConstraint=eastwest;" parent="31" vertex="1">
                    <mxGeometry y="156" width="220" height="8" as="geometry"/>
                </mxCell>
                <mxCell id="38" value="+ getId(): Long" style="text;align=left;verticalAlign=top;spacingLeft=4;spacingRight=4;overflow=hidden;rotatable=0;points=[[0,0.5],[1,0.5]];portConstraint=eastwest;" parent="31" vertex="1">
                    <mxGeometry y="164" width="220" height="26" as="geometry"/>
                </mxCell>
                <mxCell id="39" value="+ setId(Long id): void" style="text;align=left;verticalAlign=top;spacingLeft=4;spacingRight=4;overflow=hidden;rotatable=0;points=[[0,0.5],[1,0.5]];portConstraint=eastwest;" parent="31" vertex="1">
                    <mxGeometry y="190" width="220" height="26" as="geometry"/>
                </mxCell>
                <mxCell id="40" value="+ getAddress(): String" style="text;align=left;verticalAlign=top;spacingLeft=4;spacingRight=4;overflow=hidden;rotatable=0;points=[[0,0.5],[1,0.5]];portConstraint=eastwest;" parent="31" vertex="1">
                    <mxGeometry y="216" width="220" height="26" as="geometry"/>
                </mxCell>
                <mxCell id="41" value="+ setAddress(String address): void" style="text;align=left;verticalAlign=top;spacingLeft=4;spacingRight=4;overflow=hidden;rotatable=0;points=[[0,0.5],[1,0.5]];portConstraint=eastwest;" parent="31" vertex="1">
                    <mxGeometry y="242" width="220" height="26" as="geometry"/>
                </mxCell>
                <mxCell id="42" value="+ getZip(): Int" style="text;align=left;verticalAlign=top;spacingLeft=4;spacingRight=4;overflow=hidden;rotatable=0;points=[[0,0.5],[1,0.5]];portConstraint=eastwest;" parent="31" vertex="1">
                    <mxGeometry y="268" width="220" height="26" as="geometry"/>
                </mxCell>
                <mxCell id="43" value="+ setZip(Int zip): void" style="text;align=left;verticalAlign=top;spacingLeft=4;spacingRight=4;overflow=hidden;rotatable=0;points=[[0,0.5],[1,0.5]];portConstraint=eastwest;" parent="31" vertex="1">
                    <mxGeometry y="294" width="220" height="26" as="geometry"/>
                </mxCell>
                <mxCell id="44" value="+ getCity(): String" style="text;align=left;verticalAlign=top;spacingLeft=4;spacingRight=4;overflow=hidden;rotatable=0;points=[[0,0.5],[1,0.5]];portConstraint=eastwest;" parent="31" vertex="1">
                    <mxGeometry y="320" width="220" height="26" as="geometry"/>
                </mxCell>
                <mxCell id="45" value="+ setCity(String city): void" style="text;align=left;verticalAlign=top;spacingLeft=4;spacingRight=4;overflow=hidden;rotatable=0;points=[[0,0.5],[1,0.5]];portConstraint=eastwest;" parent="31" vertex="1">
                    <mxGeometry y="346" width="220" height="26" as="geometry"/>
                </mxCell>
                <mxCell id="46" value="+ getEntries(): List&lt;Entry&gt;" style="text;align=left;verticalAlign=top;spacingLeft=4;spacingRight=4;overflow=hidden;rotatable=0;points=[[0,0.5],[1,0.5]];portConstraint=eastwest;" parent="31" vertex="1">
                    <mxGeometry y="372" width="220" height="26" as="geometry"/>
                </mxCell>
                <mxCell id="47" value="+ setEntries(List&lt;Entry&gt; entries): void" style="text;align=left;verticalAlign=top;spacingLeft=4;spacingRight=4;overflow=hidden;rotatable=0;points=[[0,0.5],[1,0.5]];portConstraint=eastwest;" parent="31" vertex="1">
                    <mxGeometry y="398" width="220" height="26" as="geometry"/>
                </mxCell>
                <mxCell id="49" value="User" style="swimlane;fontStyle=0;align=center;verticalAlign=top;childLayout=stackLayout;horizontal=1;startSize=26;horizontalStack=0;resizeParent=1;resizeLast=0;collapsible=1;marginBottom=0;rounded=0;shadow=0;strokeWidth=1;" parent="WIyWlLk6GJQsqaUBKTNV-1" vertex="1">
                    <mxGeometry x="230" y="114" width="220" height="268" as="geometry">
                        <mxRectangle x="550" y="140" width="160" height="26" as="alternateBounds"/>
                    </mxGeometry>
                </mxCell>
                <mxCell id="50" value="- id: Long" style="text;align=left;verticalAlign=top;spacingLeft=4;spacingRight=4;overflow=hidden;rotatable=0;points=[[0,0.5],[1,0.5]];portConstraint=eastwest;" parent="49" vertex="1">
                    <mxGeometry y="26" width="220" height="26" as="geometry"/>
                </mxCell>
                <mxCell id="51" value="- username: String" style="text;align=left;verticalAlign=top;spacingLeft=4;spacingRight=4;overflow=hidden;rotatable=0;points=[[0,0.5],[1,0.5]];portConstraint=eastwest;rounded=0;shadow=0;html=0;" parent="49" vertex="1">
                    <mxGeometry y="52" width="220" height="26" as="geometry"/>
                </mxCell>
                <mxCell id="52" value="- password: String" style="text;align=left;verticalAlign=top;spacingLeft=4;spacingRight=4;overflow=hidden;rotatable=0;points=[[0,0.5],[1,0.5]];portConstraint=eastwest;rounded=0;shadow=0;html=0;" parent="49" vertex="1">
                    <mxGeometry y="78" width="220" height="26" as="geometry"/>
                </mxCell>
                <mxCell id="53" value="" style="line;html=1;strokeWidth=1;align=left;verticalAlign=middle;spacingTop=-1;spacingLeft=3;spacingRight=3;rotatable=0;labelPosition=right;points=[];portConstraint=eastwest;" parent="49" vertex="1">
                    <mxGeometry y="104" width="220" height="8" as="geometry"/>
                </mxCell>
                <mxCell id="54" value="+ getId(): Long" style="text;align=left;verticalAlign=top;spacingLeft=4;spacingRight=4;overflow=hidden;rotatable=0;points=[[0,0.5],[1,0.5]];portConstraint=eastwest;" parent="49" vertex="1">
                    <mxGeometry y="112" width="220" height="26" as="geometry"/>
                </mxCell>
                <mxCell id="55" value="+ setId(Long id): void" style="text;align=left;verticalAlign=top;spacingLeft=4;spacingRight=4;overflow=hidden;rotatable=0;points=[[0,0.5],[1,0.5]];portConstraint=eastwest;" parent="49" vertex="1">
                    <mxGeometry y="138" width="220" height="26" as="geometry"/>
                </mxCell>
                <mxCell id="56" value="+ getUsername(): String" style="text;align=left;verticalAlign=top;spacingLeft=4;spacingRight=4;overflow=hidden;rotatable=0;points=[[0,0.5],[1,0.5]];portConstraint=eastwest;" parent="49" vertex="1">
                    <mxGeometry y="164" width="220" height="26" as="geometry"/>
                </mxCell>
                <mxCell id="57" value="+ setUsername(String username): void" style="text;align=left;verticalAlign=top;spacingLeft=4;spacingRight=4;overflow=hidden;rotatable=0;points=[[0,0.5],[1,0.5]];portConstraint=eastwest;" parent="49" vertex="1">
                    <mxGeometry y="190" width="220" height="26" as="geometry"/>
                </mxCell>
                <mxCell id="58" value="+ getPassword(): String" style="text;align=left;verticalAlign=top;spacingLeft=4;spacingRight=4;overflow=hidden;rotatable=0;points=[[0,0.5],[1,0.5]];portConstraint=eastwest;" parent="49" vertex="1">
                    <mxGeometry y="216" width="220" height="26" as="geometry"/>
                </mxCell>
                <mxCell id="59" value="+ setPassword(String password): void" style="text;align=left;verticalAlign=top;spacingLeft=4;spacingRight=4;overflow=hidden;rotatable=0;points=[[0,0.5],[1,0.5]];portConstraint=eastwest;" parent="49" vertex="1">
                    <mxGeometry y="242" width="220" height="26" as="geometry"/>
                </mxCell>
                <mxCell id="60" value="Participant" style="swimlane;fontStyle=0;align=center;verticalAlign=top;childLayout=stackLayout;horizontal=1;startSize=26;horizontalStack=0;resizeParent=1;resizeLast=0;collapsible=1;marginBottom=0;rounded=0;shadow=0;strokeWidth=1;" parent="WIyWlLk6GJQsqaUBKTNV-1" vertex="1">
                    <mxGeometry x="1450" y="-120" width="220" height="502" as="geometry">
                        <mxRectangle x="550" y="140" width="160" height="26" as="alternateBounds"/>
                    </mxGeometry>
                </mxCell>
                <mxCell id="61" value="- id: Long" style="text;align=left;verticalAlign=top;spacingLeft=4;spacingRight=4;overflow=hidden;rotatable=0;points=[[0,0.5],[1,0.5]];portConstraint=eastwest;" parent="60" vertex="1">
                    <mxGeometry y="26" width="220" height="26" as="geometry"/>
                </mxCell>
                <mxCell id="62" value="- firstname: String" style="text;align=left;verticalAlign=top;spacingLeft=4;spacingRight=4;overflow=hidden;rotatable=0;points=[[0,0.5],[1,0.5]];portConstraint=eastwest;rounded=0;shadow=0;html=0;" parent="60" vertex="1">
                    <mxGeometry y="52" width="220" height="26" as="geometry"/>
                </mxCell>
                <mxCell id="63" value="- lastname: String" style="text;align=left;verticalAlign=top;spacingLeft=4;spacingRight=4;overflow=hidden;rotatable=0;points=[[0,0.5],[1,0.5]];portConstraint=eastwest;rounded=0;shadow=0;html=0;" parent="60" vertex="1">
                    <mxGeometry y="78" width="220" height="26" as="geometry"/>
                </mxCell>
                <mxCell id="64" value="- email: String" style="text;align=left;verticalAlign=top;spacingLeft=4;spacingRight=4;overflow=hidden;rotatable=0;points=[[0,0.5],[1,0.5]];portConstraint=eastwest;rounded=0;shadow=0;html=0;" parent="60" vertex="1">
                    <mxGeometry y="104" width="220" height="26" as="geometry"/>
                </mxCell>
                <mxCell id="65" value="- phone: String" style="text;align=left;verticalAlign=top;spacingLeft=4;spacingRight=4;overflow=hidden;rotatable=0;points=[[0,0.5],[1,0.5]];portConstraint=eastwest;rounded=0;shadow=0;html=0;" parent="60" vertex="1">
                    <mxGeometry y="130" width="220" height="26" as="geometry"/>
                </mxCell>
                <mxCell id="66" value="- entry: Entry" style="text;align=left;verticalAlign=top;spacingLeft=4;spacingRight=4;overflow=hidden;rotatable=0;points=[[0,0.5],[1,0.5]];portConstraint=eastwest;rounded=0;shadow=0;html=0;" parent="60" vertex="1">
                    <mxGeometry y="156" width="220" height="26" as="geometry"/>
                </mxCell>
                <mxCell id="67" value="" style="line;html=1;strokeWidth=1;align=left;verticalAlign=middle;spacingTop=-1;spacingLeft=3;spacingRight=3;rotatable=0;labelPosition=right;points=[];portConstraint=eastwest;" parent="60" vertex="1">
                    <mxGeometry y="182" width="220" height="8" as="geometry"/>
                </mxCell>
                <mxCell id="68" value="+ getId(): Long" style="text;align=left;verticalAlign=top;spacingLeft=4;spacingRight=4;overflow=hidden;rotatable=0;points=[[0,0.5],[1,0.5]];portConstraint=eastwest;" parent="60" vertex="1">
                    <mxGeometry y="190" width="220" height="26" as="geometry"/>
                </mxCell>
                <mxCell id="69" value="+ setId(Long id): void" style="text;align=left;verticalAlign=top;spacingLeft=4;spacingRight=4;overflow=hidden;rotatable=0;points=[[0,0.5],[1,0.5]];portConstraint=eastwest;" parent="60" vertex="1">
                    <mxGeometry y="216" width="220" height="26" as="geometry"/>
                </mxCell>
                <mxCell id="70" value="+ getFirstname(): String" style="text;align=left;verticalAlign=top;spacingLeft=4;spacingRight=4;overflow=hidden;rotatable=0;points=[[0,0.5],[1,0.5]];portConstraint=eastwest;" parent="60" vertex="1">
                    <mxGeometry y="242" width="220" height="26" as="geometry"/>
                </mxCell>
                <mxCell id="71" value="+ setFirstname(String firstname): void" style="text;align=left;verticalAlign=top;spacingLeft=4;spacingRight=4;overflow=hidden;rotatable=0;points=[[0,0.5],[1,0.5]];portConstraint=eastwest;" parent="60" vertex="1">
                    <mxGeometry y="268" width="220" height="26" as="geometry"/>
                </mxCell>
                <mxCell id="72" value="+ getLastname(): String" style="text;align=left;verticalAlign=top;spacingLeft=4;spacingRight=4;overflow=hidden;rotatable=0;points=[[0,0.5],[1,0.5]];portConstraint=eastwest;" parent="60" vertex="1">
                    <mxGeometry y="294" width="220" height="26" as="geometry"/>
                </mxCell>
                <mxCell id="73" value="+ setLastname(String lastname): void" style="text;align=left;verticalAlign=top;spacingLeft=4;spacingRight=4;overflow=hidden;rotatable=0;points=[[0,0.5],[1,0.5]];portConstraint=eastwest;" parent="60" vertex="1">
                    <mxGeometry y="320" width="220" height="26" as="geometry"/>
                </mxCell>
                <mxCell id="74" value="+ getEmail(): String" style="text;align=left;verticalAlign=top;spacingLeft=4;spacingRight=4;overflow=hidden;rotatable=0;points=[[0,0.5],[1,0.5]];portConstraint=eastwest;" parent="60" vertex="1">
                    <mxGeometry y="346" width="220" height="26" as="geometry"/>
                </mxCell>
                <mxCell id="75" value="- setEmail(String email): void" style="text;align=left;verticalAlign=top;spacingLeft=4;spacingRight=4;overflow=hidden;rotatable=0;points=[[0,0.5],[1,0.5]];portConstraint=eastwest;" parent="60" vertex="1">
                    <mxGeometry y="372" width="220" height="26" as="geometry"/>
                </mxCell>
                <mxCell id="76" value="+ getPhone(): String" style="text;align=left;verticalAlign=top;spacingLeft=4;spacingRight=4;overflow=hidden;rotatable=0;points=[[0,0.5],[1,0.5]];portConstraint=eastwest;" parent="60" vertex="1">
                    <mxGeometry y="398" width="220" height="26" as="geometry"/>
                </mxCell>
                <mxCell id="77" value="+ setPhone(String phone): void" style="text;align=left;verticalAlign=top;spacingLeft=4;spacingRight=4;overflow=hidden;rotatable=0;points=[[0,0.5],[1,0.5]];portConstraint=eastwest;" parent="60" vertex="1">
                    <mxGeometry y="424" width="220" height="26" as="geometry"/>
                </mxCell>
                <mxCell id="78" value="+ getEntry(): Entry" style="text;align=left;verticalAlign=top;spacingLeft=4;spacingRight=4;overflow=hidden;rotatable=0;points=[[0,0.5],[1,0.5]];portConstraint=eastwest;" parent="60" vertex="1">
                    <mxGeometry y="450" width="220" height="26" as="geometry"/>
                </mxCell>
                <mxCell id="79" value="+ setEntry(Entry entry): void" style="text;align=left;verticalAlign=top;spacingLeft=4;spacingRight=4;overflow=hidden;rotatable=0;points=[[0,0.5],[1,0.5]];portConstraint=eastwest;" parent="60" vertex="1">
                    <mxGeometry y="476" width="220" height="26" as="geometry"/>
                </mxCell>
                <mxCell id="102" value="IEntityController&lt;T&gt;" style="swimlane;fontStyle=0;align=center;verticalAlign=top;childLayout=stackLayout;horizontal=1;startSize=26;horizontalStack=0;resizeParent=1;resizeLast=0;collapsible=1;marginBottom=0;rounded=0;shadow=0;strokeWidth=1;swimlaneFillColor=#ffffff;" parent="WIyWlLk6GJQsqaUBKTNV-1" vertex="1">
                    <mxGeometry x="565" y="-1110" width="190" height="34" as="geometry">
                        <mxRectangle x="340" y="380" width="170" height="26" as="alternateBounds"/>
                    </mxGeometry>
                </mxCell>
                <mxCell id="104" value="" style="line;html=1;strokeWidth=1;align=left;verticalAlign=middle;spacingTop=-1;spacingLeft=3;spacingRight=3;rotatable=0;labelPosition=right;points=[];portConstraint=eastwest;" parent="102" vertex="1">
                    <mxGeometry y="26" width="190" height="8" as="geometry"/>
                </mxCell>
                <mxCell id="113" value="CategoryController" style="swimlane;fontStyle=0;align=center;verticalAlign=top;childLayout=stackLayout;horizontal=1;startSize=26;horizontalStack=0;resizeParent=1;resizeLast=0;collapsible=1;marginBottom=0;rounded=0;shadow=0;strokeWidth=1;" parent="WIyWlLk6GJQsqaUBKTNV-1" vertex="1">
                    <mxGeometry x="1255" y="-840" width="223" height="193" as="geometry">
                        <mxRectangle x="230" y="140" width="160" height="26" as="alternateBounds"/>
                    </mxGeometry>
                </mxCell>
                <mxCell id="114" value="- categoryService: CategoryService" style="text;align=left;verticalAlign=top;spacingLeft=4;spacingRight=4;overflow=hidden;rotatable=0;points=[[0,0.5],[1,0.5]];portConstraint=eastwest;" parent="113" vertex="1">
                    <mxGeometry y="26" width="223" height="26" as="geometry"/>
                </mxCell>
                <mxCell id="115" value="" style="line;html=1;strokeWidth=1;align=left;verticalAlign=middle;spacingTop=-1;spacingLeft=3;spacingRight=3;rotatable=0;labelPosition=right;points=[];portConstraint=eastwest;" parent="113" vertex="1">
                    <mxGeometry y="52" width="223" height="8" as="geometry"/>
                </mxCell>
                <mxCell id="116" value="+ list(): List&lt;Category&gt;" style="text;align=left;verticalAlign=top;spacingLeft=4;spacingRight=4;overflow=hidden;rotatable=0;points=[[0,0.5],[1,0.5]];portConstraint=eastwest;" parent="113" vertex="1">
                    <mxGeometry y="60" width="223" height="26" as="geometry"/>
                </mxCell>
                <mxCell id="117" value="+ add(Category category): Category" style="text;align=left;verticalAlign=top;spacingLeft=4;spacingRight=4;overflow=hidden;rotatable=0;points=[[0,0.5],[1,0.5]];portConstraint=eastwest;" parent="113" vertex="1">
                    <mxGeometry y="86" width="223" height="26" as="geometry"/>
                </mxCell>
                <mxCell id="118" value="+ get(Long id): Category" style="text;align=left;verticalAlign=top;spacingLeft=4;spacingRight=4;overflow=hidden;rotatable=0;points=[[0,0.5],[1,0.5]];portConstraint=eastwest;" parent="113" vertex="1">
                    <mxGeometry y="112" width="223" height="26" as="geometry"/>
                </mxCell>
                <mxCell id="119" value="+ delete(Long id): Category" style="text;align=left;verticalAlign=top;spacingLeft=4;spacingRight=4;overflow=hidden;rotatable=0;points=[[0,0.5],[1,0.5]];portConstraint=eastwest;" parent="113" vertex="1">
                    <mxGeometry y="138" width="223" height="26" as="geometry"/>
                </mxCell>
                <mxCell id="120" value="+ update(Category category): Category" style="text;align=left;verticalAlign=top;spacingLeft=4;spacingRight=4;overflow=hidden;rotatable=0;points=[[0,0.5],[1,0.5]];portConstraint=eastwest;" parent="113" vertex="1">
                    <mxGeometry y="164" width="223" height="26" as="geometry"/>
                </mxCell>
                <mxCell id="121" value="LocationController" style="swimlane;fontStyle=0;align=center;verticalAlign=top;childLayout=stackLayout;horizontal=1;startSize=26;horizontalStack=0;resizeParent=1;resizeLast=0;collapsible=1;marginBottom=0;rounded=0;shadow=0;strokeWidth=1;" parent="WIyWlLk6GJQsqaUBKTNV-1" vertex="1">
                    <mxGeometry x="-190" y="-840" width="223" height="193" as="geometry">
                        <mxRectangle x="230" y="140" width="160" height="26" as="alternateBounds"/>
                    </mxGeometry>
                </mxCell>
                <mxCell id="122" value="- locationService: LocationService" style="text;align=left;verticalAlign=top;spacingLeft=4;spacingRight=4;overflow=hidden;rotatable=0;points=[[0,0.5],[1,0.5]];portConstraint=eastwest;" parent="121" vertex="1">
                    <mxGeometry y="26" width="223" height="26" as="geometry"/>
                </mxCell>
                <mxCell id="123" value="" style="line;html=1;strokeWidth=1;align=left;verticalAlign=middle;spacingTop=-1;spacingLeft=3;spacingRight=3;rotatable=0;labelPosition=right;points=[];portConstraint=eastwest;" parent="121" vertex="1">
                    <mxGeometry y="52" width="223" height="8" as="geometry"/>
                </mxCell>
                <mxCell id="124" value="+ list(): List&lt;Location&gt;" style="text;align=left;verticalAlign=top;spacingLeft=4;spacingRight=4;overflow=hidden;rotatable=0;points=[[0,0.5],[1,0.5]];portConstraint=eastwest;" parent="121" vertex="1">
                    <mxGeometry y="60" width="223" height="26" as="geometry"/>
                </mxCell>
                <mxCell id="125" value="+ add(Location location): Location" style="text;align=left;verticalAlign=top;spacingLeft=4;spacingRight=4;overflow=hidden;rotatable=0;points=[[0,0.5],[1,0.5]];portConstraint=eastwest;" parent="121" vertex="1">
                    <mxGeometry y="86" width="223" height="26" as="geometry"/>
                </mxCell>
                <mxCell id="126" value="+ get(Long id): Location" style="text;align=left;verticalAlign=top;spacingLeft=4;spacingRight=4;overflow=hidden;rotatable=0;points=[[0,0.5],[1,0.5]];portConstraint=eastwest;" parent="121" vertex="1">
                    <mxGeometry y="112" width="223" height="26" as="geometry"/>
                </mxCell>
                <mxCell id="127" value="+ delete(Long id): Location" style="text;align=left;verticalAlign=top;spacingLeft=4;spacingRight=4;overflow=hidden;rotatable=0;points=[[0,0.5],[1,0.5]];portConstraint=eastwest;" parent="121" vertex="1">
                    <mxGeometry y="138" width="223" height="26" as="geometry"/>
                </mxCell>
                <mxCell id="128" value="+ update(Location location): Location" style="text;align=left;verticalAlign=top;spacingLeft=4;spacingRight=4;overflow=hidden;rotatable=0;points=[[0,0.5],[1,0.5]];portConstraint=eastwest;" parent="121" vertex="1">
                    <mxGeometry y="164" width="223" height="26" as="geometry"/>
                </mxCell>
                <mxCell id="129" value="LocationService" style="swimlane;fontStyle=0;align=center;verticalAlign=top;childLayout=stackLayout;horizontal=1;startSize=26;horizontalStack=0;resizeParent=1;resizeLast=0;collapsible=1;marginBottom=0;rounded=0;shadow=0;strokeWidth=1;" parent="WIyWlLk6GJQsqaUBKTNV-1" vertex="1">
                    <mxGeometry x="113" y="-840" width="223" height="193" as="geometry">
                        <mxRectangle x="230" y="140" width="160" height="26" as="alternateBounds"/>
                    </mxGeometry>
                </mxCell>
                <mxCell id="131" value="" style="line;html=1;strokeWidth=1;align=left;verticalAlign=middle;spacingTop=-1;spacingLeft=3;spacingRight=3;rotatable=0;labelPosition=right;points=[];portConstraint=eastwest;" parent="129" vertex="1">
                    <mxGeometry y="26" width="223" height="8" as="geometry"/>
                </mxCell>
                <mxCell id="132" value="+ list(): List&lt;Location&gt;" style="text;align=left;verticalAlign=top;spacingLeft=4;spacingRight=4;overflow=hidden;rotatable=0;points=[[0,0.5],[1,0.5]];portConstraint=eastwest;" parent="129" vertex="1">
                    <mxGeometry y="34" width="223" height="26" as="geometry"/>
                </mxCell>
                <mxCell id="133" value="+ add(Location location): Location" style="text;align=left;verticalAlign=top;spacingLeft=4;spacingRight=4;overflow=hidden;rotatable=0;points=[[0,0.5],[1,0.5]];portConstraint=eastwest;" parent="129" vertex="1">
                    <mxGeometry y="60" width="223" height="26" as="geometry"/>
                </mxCell>
                <mxCell id="134" value="+ get(Long id): Location" style="text;align=left;verticalAlign=top;spacingLeft=4;spacingRight=4;overflow=hidden;rotatable=0;points=[[0,0.5],[1,0.5]];portConstraint=eastwest;" parent="129" vertex="1">
                    <mxGeometry y="86" width="223" height="26" as="geometry"/>
                </mxCell>
                <mxCell id="135" value="+ delete(Long id): Location" style="text;align=left;verticalAlign=top;spacingLeft=4;spacingRight=4;overflow=hidden;rotatable=0;points=[[0,0.5],[1,0.5]];portConstraint=eastwest;" parent="129" vertex="1">
                    <mxGeometry y="112" width="223" height="26" as="geometry"/>
                </mxCell>
                <mxCell id="136" value="+ update(Location location): Location" style="text;align=left;verticalAlign=top;spacingLeft=4;spacingRight=4;overflow=hidden;rotatable=0;points=[[0,0.5],[1,0.5]];portConstraint=eastwest;" parent="129" vertex="1">
                    <mxGeometry y="138" width="223" height="26" as="geometry"/>
                </mxCell>
                <mxCell id="130" value="- entityManager: EntityManager" style="text;align=left;verticalAlign=top;spacingLeft=4;spacingRight=4;overflow=hidden;rotatable=0;points=[[0,0.5],[1,0.5]];portConstraint=eastwest;" parent="129" vertex="1">
                    <mxGeometry y="164" width="223" height="26" as="geometry"/>
                </mxCell>
                <mxCell id="138" value="CategoryService" style="swimlane;fontStyle=0;align=center;verticalAlign=top;childLayout=stackLayout;horizontal=1;startSize=26;horizontalStack=0;resizeParent=1;resizeLast=0;collapsible=1;marginBottom=0;rounded=0;shadow=0;strokeWidth=1;" parent="WIyWlLk6GJQsqaUBKTNV-1" vertex="1">
                    <mxGeometry x="1558" y="-840" width="223" height="193" as="geometry">
                        <mxRectangle x="230" y="140" width="160" height="26" as="alternateBounds"/>
                    </mxGeometry>
                </mxCell>
                <mxCell id="139" value="- entityManager: EntityManager" style="text;align=left;verticalAlign=top;spacingLeft=4;spacingRight=4;overflow=hidden;rotatable=0;points=[[0,0.5],[1,0.5]];portConstraint=eastwest;" parent="138" vertex="1">
                    <mxGeometry y="26" width="223" height="26" as="geometry"/>
                </mxCell>
                <mxCell id="140" value="" style="line;html=1;strokeWidth=1;align=left;verticalAlign=middle;spacingTop=-1;spacingLeft=3;spacingRight=3;rotatable=0;labelPosition=right;points=[];portConstraint=eastwest;" parent="138" vertex="1">
                    <mxGeometry y="52" width="223" height="8" as="geometry"/>
                </mxCell>
                <mxCell id="141" value="+ list(): List&lt;Category&gt;" style="text;align=left;verticalAlign=top;spacingLeft=4;spacingRight=4;overflow=hidden;rotatable=0;points=[[0,0.5],[1,0.5]];portConstraint=eastwest;" parent="138" vertex="1">
                    <mxGeometry y="60" width="223" height="26" as="geometry"/>
                </mxCell>
                <mxCell id="142" value="+ add(Category category): Category" style="text;align=left;verticalAlign=top;spacingLeft=4;spacingRight=4;overflow=hidden;rotatable=0;points=[[0,0.5],[1,0.5]];portConstraint=eastwest;" parent="138" vertex="1">
                    <mxGeometry y="86" width="223" height="26" as="geometry"/>
                </mxCell>
                <mxCell id="143" value="+ get(Long id): Category" style="text;align=left;verticalAlign=top;spacingLeft=4;spacingRight=4;overflow=hidden;rotatable=0;points=[[0,0.5],[1,0.5]];portConstraint=eastwest;" parent="138" vertex="1">
                    <mxGeometry y="112" width="223" height="26" as="geometry"/>
                </mxCell>
                <mxCell id="144" value="+ delete(Long id): Category" style="text;align=left;verticalAlign=top;spacingLeft=4;spacingRight=4;overflow=hidden;rotatable=0;points=[[0,0.5],[1,0.5]];portConstraint=eastwest;" parent="138" vertex="1">
                    <mxGeometry y="138" width="223" height="26" as="geometry"/>
                </mxCell>
                <mxCell id="145" value="+ update(Category category): Category" style="text;align=left;verticalAlign=top;spacingLeft=4;spacingRight=4;overflow=hidden;rotatable=0;points=[[0,0.5],[1,0.5]];portConstraint=eastwest;" parent="138" vertex="1">
                    <mxGeometry y="164" width="223" height="26" as="geometry"/>
                </mxCell>
                <mxCell id="148" value="" style="endArrow=block;dashed=1;endFill=0;endSize=12;html=1;entryX=0.5;entryY=0;entryDx=0;entryDy=0;" parent="WIyWlLk6GJQsqaUBKTNV-1" source="102" target="121" edge="1">
                    <mxGeometry width="160" relative="1" as="geometry">
                        <mxPoint x="460" y="-1086" as="sourcePoint"/>
                        <mxPoint x="630" y="-900" as="targetPoint"/>
                        <Array as="points">
                            <mxPoint x="-78" y="-1094"/>
                        </Array>
                    </mxGeometry>
                </mxCell>
                <mxCell id="149" value="" style="endArrow=block;dashed=1;endFill=0;endSize=12;html=1;entryX=0.5;entryY=0;entryDx=0;entryDy=0;exitX=0;exitY=1;exitDx=0;exitDy=0;" parent="WIyWlLk6GJQsqaUBKTNV-1" source="200" target="129" edge="1">
                    <mxGeometry width="160" relative="1" as="geometry">
                        <mxPoint x="520" y="-920" as="sourcePoint"/>
                        <mxPoint x="970" y="-900" as="targetPoint"/>
                        <Array as="points">
                            <mxPoint x="825" y="-1018"/>
                            <mxPoint x="225" y="-1018"/>
                        </Array>
                    </mxGeometry>
                </mxCell>
                <mxCell id="150" value="" style="endArrow=block;dashed=1;endFill=0;endSize=12;html=1;entryX=0.5;entryY=0;entryDx=0;entryDy=0;" parent="WIyWlLk6GJQsqaUBKTNV-1" source="200" target="zkfFHV4jXpPFQw0GAbJ--13" edge="1">
                    <mxGeometry width="160" relative="1" as="geometry">
                        <mxPoint x="840" y="-960" as="sourcePoint"/>
                        <mxPoint x="780" y="-820" as="targetPoint"/>
                        <Array as="points">
                            <mxPoint x="920" y="-1018"/>
                        </Array>
                    </mxGeometry>
                </mxCell>
                <mxCell id="151" value="" style="endArrow=block;dashed=1;endFill=0;endSize=12;html=1;entryX=0.5;entryY=0;entryDx=0;entryDy=0;" parent="WIyWlLk6GJQsqaUBKTNV-1" source="102" target="zkfFHV4jXpPFQw0GAbJ--0" edge="1">
                    <mxGeometry width="160" relative="1" as="geometry">
                        <mxPoint x="730" y="-910" as="sourcePoint"/>
                        <mxPoint x="510" y="-820" as="targetPoint"/>
                        <Array as="points">
                            <mxPoint x="660" y="-1018"/>
                        </Array>
                    </mxGeometry>
                </mxCell>
                <mxCell id="152" value="" style="endArrow=block;dashed=1;endFill=0;endSize=12;html=1;entryX=0.5;entryY=0;entryDx=0;entryDy=0;exitX=1;exitY=1;exitDx=0;exitDy=0;" parent="WIyWlLk6GJQsqaUBKTNV-1" source="102" target="113" edge="1">
                    <mxGeometry width="160" relative="1" as="geometry">
                        <mxPoint x="1110" y="-980" as="sourcePoint"/>
                        <mxPoint x="1130" y="-840" as="targetPoint"/>
                        <Array as="points">
                            <mxPoint x="755" y="-1000"/>
                            <mxPoint x="1367" y="-1000"/>
                        </Array>
                    </mxGeometry>
                </mxCell>
                <mxCell id="153" value="" style="endArrow=block;dashed=1;endFill=0;endSize=12;html=1;entryX=0.5;entryY=0;entryDx=0;entryDy=0;" parent="WIyWlLk6GJQsqaUBKTNV-1" source="200" target="138" edge="1">
                    <mxGeometry width="160" relative="1" as="geometry">
                        <mxPoint x="1170" y="-1100" as="sourcePoint"/>
                        <mxPoint x="1340" y="-840" as="targetPoint"/>
                        <Array as="points">
                            <mxPoint x="1670" y="-1092"/>
                        </Array>
                    </mxGeometry>
                </mxCell>
                <mxCell id="161" value="" style="endArrow=open;endFill=1;endSize=12;html=1;" parent="WIyWlLk6GJQsqaUBKTNV-1" source="121" target="129" edge="1">
                    <mxGeometry width="160" relative="1" as="geometry">
                        <mxPoint x="35" y="-600" as="sourcePoint"/>
                        <mxPoint x="75" y="-860" as="targetPoint"/>
                    </mxGeometry>
                </mxCell>
                <mxCell id="162" value="" style="endArrow=open;endFill=1;endSize=12;html=1;" parent="WIyWlLk6GJQsqaUBKTNV-1" source="113" target="138" edge="1">
                    <mxGeometry width="160" relative="1" as="geometry">
                        <mxPoint x="1420" y="-690" as="sourcePoint"/>
                        <mxPoint x="1580" y="-690" as="targetPoint"/>
                    </mxGeometry>
                </mxCell>
                <mxCell id="163" value="" style="endArrow=open;endFill=1;endSize=12;html=1;" parent="WIyWlLk6GJQsqaUBKTNV-1" source="zkfFHV4jXpPFQw0GAbJ--0" target="zkfFHV4jXpPFQw0GAbJ--13" edge="1">
                    <mxGeometry width="160" relative="1" as="geometry">
                        <mxPoint x="745" y="-710" as="sourcePoint"/>
                        <mxPoint x="905" y="-710" as="targetPoint"/>
                    </mxGeometry>
                </mxCell>
                <mxCell id="167" value="" style="endArrow=diamondThin;endFill=1;endSize=24;html=1;" parent="WIyWlLk6GJQsqaUBKTNV-1" source="11" target="31" edge="1">
                    <mxGeometry width="160" relative="1" as="geometry">
                        <mxPoint x="579.5" y="-170" as="sourcePoint"/>
                        <mxPoint x="739.5" y="-170" as="targetPoint"/>
                    </mxGeometry>
                </mxCell>
                <mxCell id="168" value="1" style="edgeLabel;html=1;align=center;verticalAlign=middle;resizable=0;points=[];fontColor=#000000;" parent="167" vertex="1" connectable="0">
                    <mxGeometry x="0.5392" y="-2" relative="1" as="geometry">
                        <mxPoint x="-3" y="-7" as="offset"/>
                    </mxGeometry>
                </mxCell>
                <mxCell id="169" value="0..*" style="edgeLabel;html=1;align=center;verticalAlign=middle;resizable=0;points=[];fontColor=#000000;" parent="167" vertex="1" connectable="0">
                    <mxGeometry x="-0.8333" y="-2" relative="1" as="geometry">
                        <mxPoint x="-1" y="-7" as="offset"/>
                    </mxGeometry>
                </mxCell>
                <mxCell id="170" value="" style="endArrow=diamondThin;endFill=1;endSize=24;html=1;fontColor=#000000;strokeColor=#000000;" parent="WIyWlLk6GJQsqaUBKTNV-1" source="60" target="11" edge="1">
                    <mxGeometry x="0.431" y="-11" width="160" relative="1" as="geometry">
                        <mxPoint x="919.5" y="-260" as="sourcePoint"/>
                        <mxPoint x="1079.5" y="-260" as="targetPoint"/>
                        <Array as="points">
                            <mxPoint x="797" y="131"/>
                        </Array>
                        <mxPoint as="offset"/>
                    </mxGeometry>
                </mxCell>
                <mxCell id="171" value="1" style="edgeLabel;html=1;align=center;verticalAlign=middle;resizable=0;points=[];fontColor=#000000;" parent="170" vertex="1" connectable="0">
                    <mxGeometry x="0.243" relative="1" as="geometry">
                        <mxPoint x="-206" y="-26" as="offset"/>
                    </mxGeometry>
                </mxCell>
                <mxCell id="172" value="0..*" style="edgeLabel;html=1;align=center;verticalAlign=middle;resizable=0;points=[];fontColor=#000000;" parent="170" vertex="1" connectable="0">
                    <mxGeometry x="-0.7258" relative="1" as="geometry">
                        <mxPoint x="87" y="-9" as="offset"/>
                    </mxGeometry>
                </mxCell>
                <mxCell id="173" value="" style="endArrow=diamondThin;endFill=1;endSize=24;html=1;fontColor=#000000;strokeColor=#000000;" parent="WIyWlLk6GJQsqaUBKTNV-1" source="11" target="0" edge="1">
                    <mxGeometry width="160" relative="1" as="geometry">
                        <mxPoint x="709.5" y="-560" as="sourcePoint"/>
                        <mxPoint x="869.5" y="-560" as="targetPoint"/>
                    </mxGeometry>
                </mxCell>
                <mxCell id="174" value="0..*" style="edgeLabel;html=1;align=center;verticalAlign=middle;resizable=0;points=[];fontColor=#000000;" parent="173" vertex="1" connectable="0">
                    <mxGeometry x="-0.6948" y="-1" relative="1" as="geometry">
                        <mxPoint x="-9" y="-10" as="offset"/>
                    </mxGeometry>
                </mxCell>
                <mxCell id="175" value="1" style="edgeLabel;html=1;align=center;verticalAlign=middle;resizable=0;points=[];fontColor=#000000;" parent="173" vertex="1" connectable="0">
                    <mxGeometry x="0.253" y="-2" relative="1" as="geometry">
                        <mxPoint x="18" y="-11" as="offset"/>
                    </mxGeometry>
                </mxCell>
                <mxCell id="177" value="" style="endArrow=open;endFill=1;endSize=12;html=1;fontColor=#000000;strokeColor=#000000;" parent="WIyWlLk6GJQsqaUBKTNV-1" source="zkfFHV4jXpPFQw0GAbJ--6" target="49" edge="1">
                    <mxGeometry width="160" relative="1" as="geometry">
                        <mxPoint x="-30" y="382" as="sourcePoint"/>
                        <mxPoint x="250" y="64" as="targetPoint"/>
                    </mxGeometry>
                </mxCell>
                <mxCell id="181" value="" style="endArrow=open;endFill=1;endSize=12;html=1;fontColor=#000000;strokeColor=#000000;" parent="WIyWlLk6GJQsqaUBKTNV-1" source="zkfFHV4jXpPFQw0GAbJ--0" target="11" edge="1">
                    <mxGeometry width="160" relative="1" as="geometry">
                        <mxPoint x="570" y="-670" as="sourcePoint"/>
                        <mxPoint x="800" y="-500" as="targetPoint"/>
                    </mxGeometry>
                </mxCell>
                <mxCell id="182" value="" style="endArrow=open;endFill=1;endSize=12;html=1;fontColor=#000000;strokeColor=#000000;" parent="WIyWlLk6GJQsqaUBKTNV-1" source="zkfFHV4jXpPFQw0GAbJ--13" target="11" edge="1">
                    <mxGeometry width="160" relative="1" as="geometry">
                        <mxPoint x="650" y="-600" as="sourcePoint"/>
                        <mxPoint x="810" y="-600" as="targetPoint"/>
                    </mxGeometry>
                </mxCell>
                <mxCell id="183" value="" style="endArrow=open;endFill=1;endSize=12;html=1;fontColor=#000000;strokeColor=#000000;" parent="WIyWlLk6GJQsqaUBKTNV-1" source="129" target="31" edge="1">
                    <mxGeometry width="160" relative="1" as="geometry">
                        <mxPoint x="270" y="-620" as="sourcePoint"/>
                        <mxPoint x="430" y="-620" as="targetPoint"/>
                        <Array as="points">
                            <mxPoint x="401" y="-744"/>
                        </Array>
                    </mxGeometry>
                </mxCell>
                <mxCell id="184" value="" style="endArrow=open;endFill=1;endSize=12;html=1;fontColor=#000000;strokeColor=#000000;" parent="WIyWlLk6GJQsqaUBKTNV-1" source="121" target="31" edge="1">
                    <mxGeometry width="160" relative="1" as="geometry">
                        <mxPoint x="80" y="-560" as="sourcePoint"/>
                        <mxPoint x="370" y="-380" as="targetPoint"/>
                        <Array as="points">
                            <mxPoint x="-74" y="-179"/>
                        </Array>
                    </mxGeometry>
                </mxCell>
                <mxCell id="185" value="" style="endArrow=open;endFill=1;endSize=12;html=1;fontColor=#000000;strokeColor=#000000;" parent="WIyWlLk6GJQsqaUBKTNV-1" source="113" target="0" edge="1">
                    <mxGeometry width="160" relative="1" as="geometry">
                        <mxPoint x="1170" y="-420" as="sourcePoint"/>
                        <mxPoint x="1230" y="-300" as="targetPoint"/>
                        <Array as="points">
                            <mxPoint x="1189" y="-743"/>
                        </Array>
                    </mxGeometry>
                </mxCell>
                <mxCell id="186" value="" style="endArrow=open;endFill=1;endSize=12;html=1;fontColor=#000000;strokeColor=#000000;" parent="WIyWlLk6GJQsqaUBKTNV-1" source="138" target="0" edge="1">
                    <mxGeometry width="160" relative="1" as="geometry">
                        <mxPoint x="1350" y="-450" as="sourcePoint"/>
                        <mxPoint x="1290" y="-360" as="targetPoint"/>
                        <Array as="points">
                            <mxPoint x="1670" y="-179"/>
                        </Array>
                    </mxGeometry>
                </mxCell>
                <mxCell id="187" value="AuthenticationController" style="swimlane;fontStyle=0;align=center;verticalAlign=top;childLayout=stackLayout;horizontal=1;startSize=26;horizontalStack=0;resizeParent=1;resizeLast=0;collapsible=1;marginBottom=0;rounded=0;shadow=0;strokeWidth=1;" parent="WIyWlLk6GJQsqaUBKTNV-1" vertex="1">
                    <mxGeometry x="-150" y="112.5" width="280" height="86" as="geometry">
                        <mxRectangle x="130" y="380" width="160" height="26" as="alternateBounds"/>
                    </mxGeometry>
                </mxCell>
                <mxCell id="188" value="- authenticationService: AuthenticationService" style="text;align=left;verticalAlign=top;spacingLeft=4;spacingRight=4;overflow=hidden;rotatable=0;points=[[0,0.5],[1,0.5]];portConstraint=eastwest;fontStyle=0" parent="187" vertex="1">
                    <mxGeometry y="26" width="280" height="26" as="geometry"/>
                </mxCell>
                <mxCell id="189" value="" style="line;html=1;strokeWidth=1;align=left;verticalAlign=middle;spacingTop=-1;spacingLeft=3;spacingRight=3;rotatable=0;labelPosition=right;points=[];portConstraint=eastwest;" parent="187" vertex="1">
                    <mxGeometry y="52" width="280" height="8" as="geometry"/>
                </mxCell>
                <mxCell id="190" value="+ login(User user): String" style="text;align=left;verticalAlign=top;spacingLeft=4;spacingRight=4;overflow=hidden;rotatable=0;points=[[0,0.5],[1,0.5]];portConstraint=eastwest;fontStyle=0" parent="187" vertex="1">
                    <mxGeometry y="60" width="280" height="26" as="geometry"/>
                </mxCell>
                <mxCell id="192" value="" style="endArrow=open;endFill=1;endSize=12;html=1;" parent="WIyWlLk6GJQsqaUBKTNV-1" source="187" target="zkfFHV4jXpPFQw0GAbJ--6" edge="1">
                    <mxGeometry width="160" relative="1" as="geometry">
                        <mxPoint x="-30" y="149.5" as="sourcePoint"/>
                        <mxPoint x="130" y="149.5" as="targetPoint"/>
                    </mxGeometry>
                </mxCell>
                <mxCell id="193" value="ICreateReadUpdateDelete&lt;T&gt;" style="swimlane;fontStyle=0;align=center;verticalAlign=top;childLayout=stackLayout;horizontal=1;startSize=26;horizontalStack=0;resizeParent=1;resizeLast=0;collapsible=1;marginBottom=0;rounded=0;shadow=0;strokeWidth=1;swimlaneFillColor=#ffffff;" vertex="1" parent="WIyWlLk6GJQsqaUBKTNV-1">
                    <mxGeometry x="701.5" y="-1360" width="190" height="164" as="geometry">
                        <mxRectangle x="340" y="380" width="170" height="26" as="alternateBounds"/>
                    </mxGeometry>
                </mxCell>
                <mxCell id="194" value="" style="line;html=1;strokeWidth=1;align=left;verticalAlign=middle;spacingTop=-1;spacingLeft=3;spacingRight=3;rotatable=0;labelPosition=right;points=[];portConstraint=eastwest;" vertex="1" parent="193">
                    <mxGeometry y="26" width="190" height="8" as="geometry"/>
                </mxCell>
                <mxCell id="195" value="+ create(T entity): T" style="text;align=left;verticalAlign=top;spacingLeft=4;spacingRight=4;overflow=hidden;rotatable=0;points=[[0,0.5],[1,0.5]];portConstraint=eastwest;" vertex="1" parent="193">
                    <mxGeometry y="34" width="190" height="26" as="geometry"/>
                </mxCell>
                <mxCell id="196" value="+ list(): List&lt;T&gt;" style="text;align=left;verticalAlign=top;spacingLeft=4;spacingRight=4;overflow=hidden;rotatable=0;points=[[0,0.5],[1,0.5]];portConstraint=eastwest;" vertex="1" parent="193">
                    <mxGeometry y="60" width="190" height="26" as="geometry"/>
                </mxCell>
                <mxCell id="197" value="+ get(Long id): T" style="text;align=left;verticalAlign=top;spacingLeft=4;spacingRight=4;overflow=hidden;rotatable=0;points=[[0,0.5],[1,0.5]];portConstraint=eastwest;" vertex="1" parent="193">
                    <mxGeometry y="86" width="190" height="26" as="geometry"/>
                </mxCell>
                <mxCell id="198" value="+ delete(Long id): T" style="text;align=left;verticalAlign=top;spacingLeft=4;spacingRight=4;overflow=hidden;rotatable=0;points=[[0,0.5],[1,0.5]];portConstraint=eastwest;" vertex="1" parent="193">
                    <mxGeometry y="112" width="190" height="26" as="geometry"/>
                </mxCell>
                <mxCell id="199" value="+ update(T entity): T" style="text;align=left;verticalAlign=top;spacingLeft=4;spacingRight=4;overflow=hidden;rotatable=0;points=[[0,0.5],[1,0.5]];portConstraint=eastwest;" vertex="1" parent="193">
                    <mxGeometry y="138" width="190" height="26" as="geometry"/>
                </mxCell>
                <mxCell id="200" value="IEntityService&lt;T&gt;" style="swimlane;fontStyle=0;align=center;verticalAlign=top;childLayout=stackLayout;horizontal=1;startSize=26;horizontalStack=0;resizeParent=1;resizeLast=0;collapsible=1;marginBottom=0;rounded=0;shadow=0;strokeWidth=1;swimlaneFillColor=#ffffff;" vertex="1" parent="WIyWlLk6GJQsqaUBKTNV-1">
                    <mxGeometry x="825" y="-1110" width="190" height="34" as="geometry">
                        <mxRectangle x="340" y="380" width="170" height="26" as="alternateBounds"/>
                    </mxGeometry>
                </mxCell>
                <mxCell id="201" value="" style="line;html=1;strokeWidth=1;align=left;verticalAlign=middle;spacingTop=-1;spacingLeft=3;spacingRight=3;rotatable=0;labelPosition=right;points=[];portConstraint=eastwest;" vertex="1" parent="200">
                    <mxGeometry y="26" width="190" height="8" as="geometry"/>
                </mxCell>
                <mxCell id="204" value="" style="endArrow=block;dashed=1;endFill=0;endSize=12;html=1;" edge="1" parent="WIyWlLk6GJQsqaUBKTNV-1" source="193" target="102">
                    <mxGeometry width="160" relative="1" as="geometry">
                        <mxPoint x="340" y="-1150" as="sourcePoint"/>
                        <mxPoint x="660" y="-1140" as="targetPoint"/>
                        <Array as="points">
                            <mxPoint x="660" y="-1278"/>
                        </Array>
                    </mxGeometry>
                </mxCell>
                <mxCell id="205" value="" style="endArrow=block;dashed=1;endFill=0;endSize=12;html=1;" edge="1" parent="WIyWlLk6GJQsqaUBKTNV-1" source="193" target="200">
                    <mxGeometry width="160" relative="1" as="geometry">
                        <mxPoint x="820" y="-1170" as="sourcePoint"/>
                        <mxPoint x="980" y="-1170" as="targetPoint"/>
                        <Array as="points">
                            <mxPoint x="922" y="-1278"/>
                        </Array>
                    </mxGeometry>
                </mxCell>
                <mxCell id="207" value="" style="endArrow=open;endFill=1;endSize=12;html=1;" edge="1" parent="WIyWlLk6GJQsqaUBKTNV-1" source="187" target="49">
                    <mxGeometry width="160" relative="1" as="geometry">
                        <mxPoint x="110" y="240" as="sourcePoint"/>
                        <mxPoint x="320" y="90" as="targetPoint"/>
                    </mxGeometry>
                </mxCell>
            </root>
        </mxGraphModel>
    </diagram>
</mxfile>